<svg width="56" height="42" viewBox="0 0 56 42" fill="none" xmlns="http://www.w3.org/2000/svg">
<path d="M54.9062 21.3359H48.1745C47.2492 20.0197 45.8589 19.0874 44.273 18.7406L39.4645 17.6892C41.4322 16.3621 42.729 14.1124 42.729 11.5655V8.89492V7.65931V7.38128C42.729 3.31122 39.4178 0 35.3477 0C31.2776 0 27.9664 3.31122 27.9664 7.38128V7.65931V8.89492V11.5655C27.9664 14.1092 29.2598 16.3565 31.2234 17.6843L26.4179 18.7386C26.2126 18.7836 26.0108 18.8389 25.8125 18.9028V9.85152C25.8125 9.24755 25.3227 8.75777 24.7188 8.75777H17.2812C16.6773 8.75777 16.1875 9.24755 16.1875 9.85152C16.1875 10.4555 16.6773 10.9453 17.2812 10.9453H23.625V26.2578H16.1875V20.789C16.1875 18.9797 14.7155 17.5078 12.9062 17.5078C11.097 17.5078 9.625 18.9797 9.625 20.789V26.2578H2.1875V10.9453H8.53125C9.13522 10.9453 9.625 10.4555 9.625 9.85152C9.625 9.24755 9.13522 8.75777 8.53125 8.75777H1.09375C0.489781 8.75777 0 9.24755 0 9.85152V27.3515C0 27.9555 0.489781 28.4453 1.09375 28.4453H9.625V30.5234H9.51562C7.64597 30.5234 6.125 32.0444 6.125 33.914V34.4609H1.09375C0.489781 34.4609 0 34.9507 0 35.5546V39.9296C0 40.5336 0.489781 41.0234 1.09375 41.0234H54.9062C55.5102 41.0234 56 40.5336 56 39.9296V35.5546V31.1796V26.8046V22.4296C56 21.8257 55.5102 21.3359 54.9062 21.3359ZM48.254 34.4609H42V32.2734H53.8125V34.4609H48.254ZM53.8125 30.0859H42V27.8984H53.8125V30.0859ZM53.8125 25.7109H42V23.5234H47.5643C47.5676 23.5234 47.5709 23.524 47.5741 23.524C47.5775 23.524 47.581 23.5234 47.5844 23.5234H53.8125V25.7109ZM30.1538 7.38139C30.1538 4.51752 32.4838 2.18761 35.3476 2.18761C38.0746 2.18761 40.3175 4.30008 40.5256 6.97463L37.9831 5.48089C37.5225 5.21019 36.9339 5.31202 36.5908 5.72141C35.4832 7.0432 33.8589 7.80139 32.1344 7.80139H30.1539V7.65953V7.38139H30.1538ZM30.1538 9.98878H32.1344C34.1934 9.98878 36.1484 9.20358 37.6255 7.80784L40.5415 9.52098V11.5656C40.5415 14.4295 38.2115 16.7594 35.3477 16.7594C32.4839 16.7594 30.1539 14.4294 30.1539 11.5656V9.98878H30.1538ZM37.0611 18.744L35.3313 23.3699L33.5984 18.7357C34.1595 18.8727 34.7449 18.9469 35.3476 18.9469C35.9376 18.9469 36.5108 18.8754 37.0611 18.744ZM24.7188 28.4453C25.3227 28.4453 25.8125 27.9555 25.8125 27.3515V21.2678C26.1499 21.0899 26.5097 20.958 26.8866 20.8753L31.6706 19.8257L34.3069 26.8757C34.4667 27.3031 34.875 27.5863 35.3313 27.5863C35.7876 27.5863 36.1959 27.3031 36.3557 26.8756L38.9921 19.8252L43.8058 20.8777C44.2283 20.97 44.6293 21.1264 44.9982 21.3358H40.9062C40.3023 21.3358 39.8125 21.8256 39.8125 22.4295V26.8045V31.1795V34.4608H23.5352V28.4452H24.7188V28.4453ZM21.3477 28.4453V34.4609H19.6875V33.914C19.6875 32.0444 18.1665 30.5234 16.2969 30.5234H16.1875V28.4453H21.3477ZM11.8125 20.789C11.8125 20.1859 12.3032 19.6953 12.9062 19.6953C13.5093 19.6953 14 20.1859 14 20.789V30.5234H11.8125V20.789ZM8.3125 33.914C8.3125 33.2507 8.85227 32.7109 9.51562 32.7109H10.7188H15.0938H16.2969C16.9602 32.7109 17.5 33.2507 17.5 33.914V34.4609H8.3125V33.914ZM53.8125 38.8359H2.1875V36.6484H53.8125V38.8359Z" fill="#00AD33"/>
</svg>
