<svg width="54" height="56" viewBox="0 0 54 56" fill="none" xmlns="http://www.w3.org/2000/svg">
<path d="M27.0002 26.9275C30.6187 26.9275 33.5625 23.9836 33.5625 20.365C33.5625 16.7464 30.6187 13.8025 27.0002 13.8025C23.3815 13.8025 20.4375 16.7464 20.4375 20.365C20.4375 23.9836 23.3815 26.9275 27.0002 26.9275ZM27.0002 17.0837C28.8094 17.0837 30.2812 18.5557 30.2812 20.365C30.2812 22.1743 28.8094 23.6462 27.0002 23.6462C25.1908 23.6462 23.7188 22.1743 23.7188 20.365C23.7188 18.5557 25.1908 17.0837 27.0002 17.0837Z" fill="#00AD33"/>
<path d="M47.8754 37.7344H36.8952C42.0223 32.8404 46.6875 28.0432 46.6875 19.6875C46.6875 8.42931 38.2339 0 27.0002 0C15.7438 0 7.3125 8.45436 7.3125 19.6875C7.3125 28.0432 11.9778 32.8404 17.1051 37.7344H6.12458L0.124817 56H53.8752L47.8754 37.7344ZM10.5938 19.6875C10.5938 10.1811 17.4937 3.28125 27.0002 3.28125C36.5065 3.28125 43.4062 10.1811 43.4062 19.6875C43.4062 30.3229 34.4292 34.0898 27.0002 43.2494C24.7677 40.4969 22.38 38.2248 20.0582 36.0158C14.7703 30.9844 10.5938 27.0103 10.5938 19.6875ZM5.98568 48.6719H17.8125V45.3906H7.06346L8.50054 41.0156H20.4375V40.9419C24.7957 45.2636 25.9747 47.4297 27.0002 48.7213C28.0511 47.3977 29.1917 45.2767 33.5625 40.9421V41.0156H45.4996L46.9367 45.3906H36.1875V48.6719H48.0143L49.3436 52.7188H4.65644L5.98568 48.6719Z" fill="#00AD33"/>
</svg>
