<!DOCTYPE svg PUBLIC "-//W3C//DTD SVG 1.1//EN" "http://www.w3.org/Graphics/SVG/1.1/DTD/svg11.dtd">
<!-- Uploaded to: SVG Repo, www.svgrepo.com, Transformed by: SVG Repo Mixer Tools -->
<svg height="64px" width="64px" version="1.1" id="Layer_1" xmlns="http://www.w3.org/2000/svg" xmlns:xlink="http://www.w3.org/1999/xlink" viewBox="0 0 512.001 512.001" xml:space="preserve" fill="#FFFFFF" stroke="#FFFFFF">
<g id="SVGRepo_bgCarrier" stroke-width="0"/>
<g id="SVGRepo_tracerCarrier" stroke-linecap="round" stroke-linejoin="round"/>
<g id="SVGRepo_iconCarrier"> <path style="fill:#848582;" d="M488.728,232.727l-384,0.002v-34.911c0-9.413-5.671-17.9-14.367-21.501 c-8.699-3.603-18.708-1.61-25.363,5.046L6.817,239.544c-9.089,9.089-9.089,23.824,0,32.912l58.182,58.182 c4.453,4.453,10.404,6.817,16.462,6.817c2.998,0,6.021-0.58,8.901-1.772c8.696-3.603,14.367-12.088,14.367-21.501v-34.908l384-0.003 c12.853,0,23.273-10.42,23.273-23.273C512.001,243.147,501.581,232.727,488.728,232.727z"/> </g>
</svg>